<?xml version="1.0" standalone="no"?>
<!DOCTYPE svg PUBLIC "-//W3C//DTD SVG 20010904//EN"
 "http://www.w3.org/TR/2001/REC-SVG-20010904/DTD/svg10.dtd">
<svg version="1.0" xmlns="http://www.w3.org/2000/svg"
 width="1000.000000pt" height="1000.000000pt" viewBox="0 0 1000.000000 1000.000000"
 preserveAspectRatio="xMidYMid meet">
<metadata>
Created by potrace 1.14, written by Peter Selinger 2001-2017
</metadata>
<g transform="translate(0.000000,1000.000000) scale(0.100000,-0.100000)"
fill="#000000" stroke="none">
<path d="M4800 9814 c-1417 -72 -2706 -731 -3578 -1831 -572 -722 -926 -1605
-1018 -2543 -23 -237 -23 -653 0 -890 131 -1326 779 -2519 1813 -3338 724
-573 1605 -926 2543 -1018 237 -23 653 -23 890 0 1326 131 2517 778 3338 1813
497 627 837 1395 971 2188 47 284 64 494 64 800 0 181 -5 327 -17 445 -131
1326 -779 2519 -1813 3338 -720 570 -1618 930 -2533 1017 -160 15 -528 25
-660 19z m760 -844 c767 -103 1454 -394 2060 -874 159 -125 488 -456 604 -606
395 -512 616 -1035 701 -1660 23 -162 31 -554 16 -732 -18 -200 -55 -429 -96
-587 -192 -730 -667 -1266 -1322 -1494 -124 -44 -295 -82 -432 -98 -130 -14
-405 -7 -521 15 -196 36 -407 119 -551 217 -96 65 -224 193 -288 289 -49 73
-73 122 -129 264 -7 15 -17 8 -65 -51 -81 -100 -276 -286 -380 -364 -334 -250
-701 -379 -1080 -379 -361 0 -687 123 -931 351 -203 190 -342 458 -397 765
-25 141 -30 413 -10 564 69 516 272 1060 540 1445 376 539 951 902 1641 1035
375 72 802 78 1215 19 243 -35 649 -131 763 -181 l29 -13 -78 -355 c-266
-1205 -404 -1874 -419 -2027 -24 -244 26 -431 151 -555 108 -109 254 -154 459
-144 267 13 469 101 650 285 404 408 535 1169 335 1939 -94 357 -280 734 -505
1017 -81 102 -240 265 -355 364 -778 670 -1829 922 -2829 680 -1173 -284
-2097 -1228 -2360 -2409 -58 -262 -70 -381 -70 -700 0 -256 3 -314 23 -440 42
-273 98 -487 188 -715 494 -1255 1731 -2067 3078 -2022 490 17 909 124 1324
338 73 38 135 69 137 69 2 0 4 -202 4 -449 l0 -449 -87 -37 c-296 -123 -657
-214 -1043 -262 -181 -22 -663 -25 -845 -5 -803 89 -1521 392 -2145 906 -130
107 -389 366 -506 507 -631 753 -956 1684 -931 2659 15 586 142 1117 393 1638
87 183 148 288 280 487 269 405 598 748 989 1031 551 400 1208 655 1875 728
218 24 216 24 500 21 197 -3 305 -9 420 -25z"/>
<path d="M5004 6064 c-406 -68 -727 -324 -924 -736 -61 -127 -141 -365 -171
-509 -28 -135 -31 -324 -5 -418 47 -173 151 -290 303 -343 57 -19 88 -23 183
-22 103 0 125 4 210 33 161 55 285 136 416 273 137 143 235 310 304 517 46
138 272 1182 259 1195 -2 2 -44 9 -94 15 -121 15 -381 12 -481 -5z"/>
</g>
</svg>
